<svg width="10" height="10" viewBox="0 0 10 10" fill="none" xmlns="http://www.w3.org/2000/svg">
<path d="M4.99992 8.75002C4.47364 8.30112 3.98583 7.80899 3.54159 7.27877C2.87492 6.48252 2.08325 5.29669 2.08325 4.16669C2.08266 2.9865 2.79336 1.92227 3.8837 1.4706C4.97404 1.01894 6.22911 1.26887 7.06325 2.10377C7.61178 2.64986 7.91905 3.39268 7.9166 4.16669C7.9166 5.29669 7.12492 6.48252 6.45825 7.27877C6.01401 7.80899 5.5262 8.30112 4.99992 8.75002ZM4.99992 2.91669C4.55334 2.91669 4.14068 3.15494 3.91739 3.54169C3.6941 3.92844 3.6941 4.40494 3.91739 4.79169C4.14068 5.17844 4.55334 5.41669 4.99992 5.41669C5.69028 5.41669 6.24992 4.85704 6.24992 4.16669C6.24992 3.47633 5.69028 2.91669 4.99992 2.91669Z" fill="#D9DFE8"/>
</svg>
