<!-- icon666.com - MILLIONS vector ICONS FREE --><svg viewBox="0 0 412.17 512" xmlns="http://www.w3.org/2000/svg" xmlns:xlink="http://www.w3.org/1999/xlink"><linearGradient id="linear-gradient" gradientUnits="userSpaceOnUse" x2="412.17" y1="256" y2="256"><stop offset="0" stop-color="#fbba10"></stop><stop offset="1" stop-color="#eb3d26"></stop></linearGradient><g id="Layer_2" data-name="Layer 2"><g id="Structured_Query_Language_Data_File" data-name="Structured Query Language Data File"><path d="m398.7 73.87-71.7-63.74a40.1 40.1 0 0 0 -26.65-10.13h-179.35a70.32 70.32 0 0 0 -70.22 70.25v111.86h-15.25a35 35 0 0 0 -35 34.94l-.43 176c-.04.95-.1 1.85-.1 2.77a35 35 0 0 0 35 35.18h15.4.41v20.8a60.27 60.27 0 0 0 60.19 60.2h241a60.28 60.28 0 0 0 60.21-60.2v-348a40.12 40.12 0 0 0 -13.51-29.93zm-13.57 14.69h-43.21a20.14 20.14 0 0 1 -20.12-20.12v-36.17zm-314.35-18.31a50.3 50.3 0 0 1 50.22-50.25h179.35c.48 0 1 0 1.45.07v48.37a40.17 40.17 0 0 0 40.12 40.12h50.25v73.49l-321.39.06zm-35.25 131.87h25.34l331.3-.06v158.94h-346.63-10.54a34.65 34.65 0 0 0 -14.77 3.29l.36-147.23a15 15 0 0 1 14.94-14.94zm14.84 208.88h-15.37a15 15 0 1 1 0-30h15.78v30zm301.63 81h-241a40.25 40.25 0 0 1 -40.2-40.2v-70.8h9.77 311.6v70.8a40.26 40.26 0 0 1 -40.17 40.2zm-272.25-174.33a10 10 0 1 1 14.81-13.43c4.91 5.41 12.62 8.64 20.64 8.64 7.81 0 13.31-4.67 14.11-9.2 1.08-6-7-9.71-10.58-11-12.48-4.6-23.56-9.53-24-9.74a11 11 0 0 1 -1.39-.75 25.54 25.54 0 0 1 -11.41-25.29c1.54-10.72 9.38-19.46 20.47-22.8 21.95-6.61 40 8.29 40.79 8.93a10 10 0 0 1 -12.82 15.35c-.31-.24-10.84-8.55-22.2-5.13-5.2 1.57-6.24 5.06-6.44 6.5a5.62 5.62 0 0 0 2 5.29c2.82 1.23 12 5.21 21.93 8.86 20.25 7.48 25.34 22.1 23.34 33.3-2.66 14.88-16.87 25.68-33.8 25.68-13.57 0-26.82-5.68-35.45-15.21zm207 5.14v-80.4a10 10 0 0 1 20 0v70.47c5.23 0 11.9 0 18.12-.07h.06a10 10 0 0 1 .05 20c-9.15.06-15.41.08-19.72.08-8.94 0-9.48-.1-10.2-.22a10 10 0 0 1 -8.36-9.86zm-70.47 10.07a50 50 0 0 0 28.11-8.62l5.36 5.37a10 10 0 0 0 14.15-14.14l-5.56-5.49a50.21 50.21 0 1 0 -42.11 22.9zm0-80.47a30.26 30.26 0 0 1 30.23 30.24 30 30 0 0 1 -2.79 12.66l-5.57-5.57a10 10 0 0 0 -14.15 14.15l5.79 5.79a30.23 30.23 0 1 1 -13.52-57.27z" fill="url(#linear-gradient)"></path></g></g></svg>