<!-- icon666.com - MILLIONS vector ICONS FREE --><svg id="Layer_1" enable-background="new 0 0 512 512" viewBox="0 0 512 512" xmlns="http://www.w3.org/2000/svg" xmlns:xlink="http://www.w3.org/1999/xlink"><linearGradient id="SVGID_1_" gradientUnits="userSpaceOnUse" x1="99.363" x2="413.688" y1="426.372" y2="112.047"><stop offset="0" stop-color="#ff0f7b"></stop><stop offset="1" stop-color="#ff930f"></stop></linearGradient><g><path d="m376.9 276.5c-2.5-47-5.5-103.5-5-145.5h-1.5c-11.5 39.5-25.5 81.5-42.5 128l-53.9 148.2c-3.3 9.2-12.1 15.3-21.9 15.3-10 0-18.8-6.4-22.1-15.8l-49.1-144.7c-16-47.5-29.5-91-39-131h-1c-1 42-3.5 98.5-6.5 149l-7.8 125.2c-.7 10.9-9.7 19.3-20.6 19.3-12 0-21.4-10.1-20.6-22.1l19.8-283.4c1.2-17.7 16-31.5 33.8-31.5 14.3 0 27.1 9 31.9 22.6l49.5 140.4c14 41.5 25.5 78.5 34 113.5h1.5c8.5-34 20.5-71 35.5-113.5l51.8-140.9c4.9-13.3 17.6-22.1 31.8-22.1h.1c17.9 0 32.7 13.9 33.8 31.7l17.7 283.4c.7 11.9-8.7 21.9-20.6 21.9h-1.1c-10.9 0-20-8.5-20.6-19.4z" fill="url(#SVGID_1_)"></path></g></svg>